PathFileType	4	(X/Y/Z)	c:/Users/goper/Files/vsCode/490R/osim_files/C07/C07_Fast_05.trc
DataRate	CameraRate	NumFrames	NumMarkers	Units                	OrigDataRate	OrigDataStartFrame	OrigNumFrames
250.00	250.00	6	36	mm	250.0	1940	3103
                Frame#	Time	LPSIS			LASIS			LTH1			LTH2			LTH3			LTH4			LLFE			LMFE			LSH1			LSH2			LSH3			LSH4			LLMAL			LMMAL			LCAL			LMTP5			LTOE			LMTP1			RPSIS			RASIS			RTH1			RTH2			RTH3			RTH4			RLFE			RMFE			RSH1			RSH2			RSH3			RSH4			RLMAL			RMMAL			RCAL			RMTP1			RTOE			RMTP5		
		X1	Y1	Z1	X2	Y2	Z2	X3	Y3	Z3	X4	Y4	Z4	X5	Y5	Z5	X6	Y6	Z6	X7	Y7	Z7	X8	Y8	Z8	X9	Y9	Z9	X10	Y10	Z10	X11	Y11	Z11	X12	Y12	Z12	X13	Y13	Z13	X14	Y14	Z14	X15	Y15	Z15	X16	Y16	Z16	X17	Y17	Z17	X18	Y18	Z18	X19	Y19	Z19	X20	Y20	Z20	X21	Y21	Z21	X22	Y22	Z22	X23	Y23	Z23	X24	Y24	Z24	X25	Y25	Z25	X26	Y26	Z26	X27	Y27	Z27	X28	Y28	Z28	X29	Y29	Z29	X30	Y30	Z30	X31	Y31	Z31	X32	Y32	Z32	X33	Y33	Z33	X34	Y34	Z34	X35	Y35	Z35	X36	Y36	Z36

1940	7.75600	0.00000	0.00000	0.00000	893.54962	948.63086	441.68649	0.00000	0.00000	0.00000	1127.74646	433.62759	443.24747	807.59833	625.28546	473.65482	0.00000	0.00000	0.00000	766.20203	512.72369	448.71835	778.10254	498.98389	331.87875	747.39990	322.97244	458.80759	0.00000	0.00000	0.00000	712.05719	336.71860	441.48636	0.00000	0.00000	0.00000	735.46741	103.36398	402.08823	712.69537	129.75710	329.28333	790.71161	47.48035	351.25269	608.16797	42.15135	423.94794	550.77795	58.25195	372.46603	581.37006	45.00976	320.57678	1062.17212	975.95508	275.81766	0.00000	0.00000	0.00000	995.56982	792.68811	140.56078	1016.98865	716.65112	141.76431	1040.31262	638.73096	150.86728	947.34601	698.29468	170.12369	1114.49084	475.75317	181.16212	1101.05237	481.42798	295.59674	1281.12927	375.67697	181.36380	0.00000	0.00000	0.00000	1234.18250	336.69971	179.04491	1264.46936	304.18939	184.70554	0.00000	0.00000	0.00000	0.00000	0.00000	0.00000	1295.31055	219.67265	305.96344	0.00000	0.00000	0.00000	1340.59106	58.42142	274.60248	1380.77759	54.55172	211.19698
1941	7.76000	0.00000	0.00000	0.00000	886.55768	949.71454	441.74814	0.00000	0.00000	0.00000	1123.37097	437.32047	443.99789	799.31885	627.37842	474.01349	0.00000	0.00000	0.00000	759.25684	513.36432	448.76898	770.89069	499.83762	331.56311	742.28412	323.13480	458.92123	0.00000	0.00000	0.00000	706.97839	336.55722	441.09161	0.00000	0.00000	0.00000	734.51135	103.61391	401.43652	711.85278	129.75407	328.93457	790.59442	47.55230	351.27762	607.97894	42.05825	424.00388	550.54572	57.54324	372.21133	581.20172	44.17904	320.32825	1055.72449	975.89935	275.96994	0.00000	0.00000	0.00000	988.16217	792.06830	141.05800	1009.02844	715.92651	141.81143	1031.62598	637.72302	150.49442	939.23383	698.02618	170.07176	1104.26746	474.12894	180.03964	1090.43689	479.42874	294.50720	1272.44836	376.73108	180.84918	0.00000	0.00000	0.00000	1226.21167	337.04205	177.93199	1256.90649	305.18512	183.63750	0.00000	0.00000	0.00000	1287.42212	222.33574	304.79614	0.00000	0.00000	0.00000	0.00000	0.00000	0.00000	1339.10303	59.19810	274.23273	1379.37939	56.11958	211.44435
1942	7.76400	1055.00610	971.76581	376.35156	880.19489	950.57019	441.92630	0.00000	0.00000	0.00000	1118.98047	440.99664	444.74518	791.20959	629.39935	474.43414	0.00000	0.00000	0.00000	752.61615	513.77637	448.89014	763.85785	500.91495	331.15527	737.53027	323.13977	458.97217	0.00000	0.00000	0.00000	702.30182	336.33112	440.77710	0.00000	0.00000	0.00000	733.71515	103.84888	401.04196	711.32068	129.69765	328.65335	790.42950	47.57743	351.38766	607.73254	41.97493	423.96344	550.37073	56.59697	371.63840	581.03381	43.40905	319.86719	1049.51794	975.91193	276.02234	0.00000	0.00000	0.00000	981.05505	791.60876	141.20929	1000.89941	715.04028	141.94888	1022.80530	636.65735	150.00537	930.97815	697.74475	170.11679	1094.29333	472.67850	178.64351	1079.53674	477.16653	293.38394	1263.48877	377.79074	180.22949	0.00000	0.00000	0.00000	1217.97498	337.39655	176.84592	1248.99390	305.92438	182.72821	0.00000	0.00000	0.00000	0.00000	0.00000	0.00000	1279.25842	224.80624	303.80765	1356.88696	59.38652	321.68661	1336.96460	60.08433	274.17908	1377.27295	58.65181	210.82422
1943	7.76800	0.00000	0.00000	0.00000	873.88153	951.32086	442.45239	0.00000	0.00000	0.00000	1114.57495	444.65591	445.48932	783.42279	631.11920	474.84140	0.00000	0.00000	0.00000	746.09320	514.03802	448.97272	756.78424	501.79492	330.82983	733.03656	323.28925	459.04587	0.00000	0.00000	0.00000	697.94312	335.97430	440.63684	0.00000	0.00000	0.00000	732.80835	104.05911	400.77588	710.80060	129.63560	328.37314	790.23010	47.56253	351.48273	607.50879	41.87580	423.91995	550.15021	55.71136	371.26022	580.66498	42.68660	319.55405	1043.27893	975.85309	276.13013	0.00000	0.00000	0.00000	973.36884	790.71527	141.94247	992.75067	714.26440	141.95345	1013.72968	635.44232	149.62050	922.62036	697.46448	170.17558	1083.83911	471.04697	177.57527	1068.45374	475.24600	292.36649	1254.26685	378.84494	179.48096	0.00000	0.00000	0.00000	1209.36938	337.65808	175.95818	1241.07874	306.81479	181.93234	0.00000	0.00000	0.00000	0.00000	0.00000	0.00000	0.00000	0.00000	0.00000	1355.00403	60.80827	320.47275	1334.64307	61.77997	273.83087	1375.09827	61.21250	210.65288
1944	7.77200	1042.59778	972.06830	376.35477	867.62396	952.22919	442.90363	0.00000	0.00000	0.00000	1110.15405	448.29803	446.23019	776.26587	632.44574	474.93613	0.00000	0.00000	0.00000	739.85791	514.51196	449.04367	750.00366	502.85580	330.37289	728.92517	323.41803	459.01410	0.00000	0.00000	0.00000	693.64142	335.71994	440.47513	0.00000	0.00000	0.00000	731.94049	104.36929	400.47137	710.12494	129.59448	328.06387	790.08960	47.62918	351.46091	607.36285	41.75172	424.01721	549.92737	54.97158	371.22067	580.50562	42.61628	319.30060	1037.13538	975.77374	276.29105	0.00000	0.00000	0.00000	965.98950	789.95959	142.37694	984.47198	713.33008	142.00407	1004.58765	634.28833	149.24287	914.08679	697.14850	170.40492	1073.01453	469.23160	176.63916	1057.25159	473.01498	291.38303	1244.67310	379.80847	178.81535	0.00000	0.00000	0.00000	0.00000	0.00000	0.00000	1232.58850	307.71384	181.23450	0.00000	0.00000	0.00000	0.00000	0.00000	0.00000	1469.95410	220.95020	279.13348	0.00000	0.00000	0.00000	0.00000	0.00000	0.00000	1372.93115	63.69724	210.86400
1945	7.77600	0.00000	0.00000	0.00000	861.06293	953.26666	443.13565	0.00000	0.00000	0.00000	1105.71753	451.92282	446.96790	769.94843	633.08081	475.22839	0.00000	0.00000	0.00000	733.84619	514.78607	448.98700	743.35651	503.79163	329.95880	725.06219	323.59958	459.01181	0.00000	0.00000	0.00000	689.79071	335.43857	440.25787	0.00000	0.00000	0.00000	731.28741	104.56115	400.27679	709.27081	129.51495	327.77628	789.96411	47.67015	351.44830	607.19305	41.64708	424.18948	549.69299	54.68832	371.46860	580.30231	42.60752	319.43704	1031.15173	975.86542	276.32330	0.00000	0.00000	0.00000	958.61890	789.33801	142.83907	976.15228	712.43591	142.10834	995.32990	633.16315	148.87413	905.85529	697.11182	170.41452	1062.48950	467.86490	175.55595	1045.91577	470.94073	290.64496	1234.82129	380.83392	178.06487	0.00000	0.00000	0.00000	0.00000	0.00000	0.00000	1223.82764	308.51093	180.69366	0.00000	0.00000	0.00000	0.00000	0.00000	0.00000	1462.03271	227.68565	278.48633	1349.84717	65.89462	319.77911	1329.71008	64.65166	273.43503	1370.21082	66.89661	210.51285
